<svg width="45" height="52" viewBox="0 0 45 52" fill="none" xmlns="http://www.w3.org/2000/svg">
<path d="M38.4377 22.2228C41.4096 16.7036 40.3269 6.92056 38.4377 2.38656C37.7293 0.686302 39.7604 0.119524 40.7049 1.25307C43.5381 4.65357 44.4697 9.18755 44.6721 12.0213C45.0364 17.122 45.2384 20.5225 39.5709 30.1573C31.4097 41.9457 17.0903 42.6258 11.2339 41.4923C8.96687 41.0389 9.15579 42.4369 9.53362 43.1925L12.9341 49.4268C13.3876 51.6938 11.6117 51.5049 10.6671 51.127L1.59914 40.9255C-1.23491 37.5251 0.465151 36.3916 2.16589 35.258L13.5009 28.4571C15.2006 27.3236 16.3341 29.0238 15.7674 29.5906L13.5009 31.8576C11.8001 33.5578 11.2334 35.1517 12.3672 35.258C26.876 36.6182 35.7929 27.1346 38.4377 22.2228Z" fill="#B5121A"/>
</svg>
