<svg width="37" height="46" viewBox="0 0 37 46" fill="none" xmlns="http://www.w3.org/2000/svg">
<path d="M28.416 13.2561C27.2079 9.229 22.0544 5.1026 19.0081 3.8482C17.8657 3.37781 18.5602 2.14565 19.5457 2.23535C22.5023 2.50438 25.0945 4.21293 26.5345 5.46093C29.1265 7.70731 30.835 9.22433 32.7166 16.4819C34.4369 25.9436 27.9681 33.0576 24.6529 35.2975C23.3627 36.1577 24.1153 36.7311 24.6529 36.9103L29.2225 38.2543C30.5127 39.1144 29.5809 39.8671 28.9537 40.1359L19.8145 39.5983C16.8576 39.3296 17.1263 37.9857 17.3954 36.6415L19.5457 28.04C19.8143 26.6962 21.1583 26.965 21.1583 27.5026L21.1585 29.6528C21.1583 31.2658 21.6455 32.2906 22.2336 31.8032C29.76 25.5671 29.4912 16.8401 28.416 13.2561Z" fill="#B5121A"/>
</svg>
