<svg width="29" height="30" viewBox="0 0 29 30" fill="none" xmlns="http://www.w3.org/2000/svg">
<path d="M19.2 15.2H22.4C22.4 10.784 18.816 7.20005 14.4 7.20005V10.4C17.056 10.4 19.2 12.544 19.2 15.2ZM25.6 15.2H28.8C28.8 7.24805 22.352 0.800049 14.4 0.800049V4.00005C20.592 4.00005 25.6 9.00805 25.6 15.2ZM27.2 20.8C25.2 20.8 23.28 20.48 21.488 19.888C21.328 19.84 21.152 19.808 20.992 19.808C20.576 19.808 20.176 19.968 19.856 20.272L16.336 23.792C11.808 21.488 8.096 17.792 5.792 13.248L9.312 9.71205C9.76 9.29605 9.888 8.67205 9.712 8.11205C9.12 6.32005 8.8 4.40005 8.8 2.40005C8.8 1.52005 8.08 0.800049 7.2 0.800049H1.6C0.72 0.800049 0 1.52005 0 2.40005C0 17.424 12.176 29.6 27.2 29.6C28.08 29.6 28.8 28.88 28.8 28V22.4C28.8 21.52 28.08 20.8 27.2 20.8ZM3.248 4.00005H5.648C5.76 5.40805 6 6.80005 6.368 8.12805L4.448 10.064C3.808 8.12805 3.392 6.11205 3.248 4.00005ZM25.6 26.352C23.488 26.208 21.44 25.792 19.52 25.136L21.44 23.216C22.8 23.6 24.192 23.84 25.6 23.936V26.352Z" fill="#0C4596"/>
</svg>
